<?xml version="1.0" encoding="UTF-8"?>
<svg id="Layer_2" data-name="Layer 2" xmlns="http://www.w3.org/2000/svg" viewBox="0 0 752.92 582.98">
  <g id="Layer_1-2" data-name="Layer 1">
    <g>
      <path d="M472.74,4.2c-133.11,21.27-235.47,134.62-239.72,272.69h106.93c23.35-67.26,71.17-123.07,132.79-156.79V4.2Z"/>
      <path d="M555.65,3.05v87.27c17.42-3.33,35.4-5.08,53.79-5.08,52.31,0,101.33,14.1,143.48,38.68-44.73-64.76-115.55-110.11-197.27-120.87Z"/>
    </g>
    <g>
      <rect x="277.74" y="238.88" width="181.04" height="45.8"/>
      <path d="M472.74,238.88h-57.17c-27.42,87.04-95.45,156.07-181.87,184.87v99.22c.38,0,.76,0,1.14,0,99.36,0,186.84-50.82,237.9-127.88v-156.21Z"/>
    </g>
    <path d="M472.74,4.19c-135.6,21.67-239.3,138.91-239.86,280.49h104.48c22.28-70.74,71.38-129.57,135.38-164.59V4.19Z"/>
    <path d="M472.74,535.01c-33.6,17.16-69.46,27.06-105.53,30.07,33.71,12.51,69.56,18.57,105.53,17.84v-47.91Z"/>
    <path d="M196.09,433.47c-17.05,3.18-34.64,4.85-52.61,4.85-52.31,0-101.33-14.1-143.48-38.68,44.52,64.45,114.87,109.68,196.09,120.71v-86.88Z"/>
    <path d="M396.59,284.68c-34.07,65.39-92.72,115.93-163.71,139.35v98.93c.65,0,1.3.02,1.95.02,99.36,0,186.84-50.81,237.9-127.87v-110.43h-76.15Z"/>
    <path d="M530.96,495.29V68.3c-9.75-8.65-19.99-16.55-30.66-23.67v474.29c2.51-1.68,5.01-3.41,7.49-5.18,8.12-5.81,15.84-11.98,23.17-18.45Z"/>
    <path d="M507.79,513.74c-2.48,1.77-4.98,3.5-7.49,5.18v61.66c10.27-1.26,20.5-3.08,30.66-5.47v-79.82c-7.32,6.47-15.04,12.64-23.17,18.45Z"/>
    <path d="M530.96,19.91c-10.11-2.39-20.35-4.22-30.66-5.5v30.22c10.66,7.12,20.91,15.02,30.66,23.67V19.91Z"/>
    <path d="M627.35,254.79l111.98-40.97c-8.55-27.74-21.49-54.65-39.04-79.7-36.78-52.52-88.06-88.84-144.64-107.37v63.64c7.52,8.4,14.62,17.34,21.25,26.8,29.58,42.23,46.1,89.68,50.45,137.59Z"/>
    <path d="M613.51,372.11c-12.16,36.09-31.58,69.97-57.86,99.22v97.49c25.96-8.53,51.12-20.96,74.65-37.44,28.68-20.09,52.51-44.5,71.27-71.73l-88.07-87.53Z"/>
    <path d="M625.13,324.56l98.23,97.64c24.93-51.54,33.89-109.71,25.47-166.5l-120.95,44.25c-.56,8.25-1.48,16.46-2.75,24.62Z"/>
    <path d="M517.07,0c-5.63,0-11.22.18-16.77.5v13.91c10.31,1.28,20.54,3.11,30.66,5.5V.33c-4.6-.22-9.23-.33-13.89-.33Z"/>
  </g>
</svg>